<?xml version="1.0" encoding="UTF-8" standalone="no" ?>
<!DOCTYPE svg PUBLIC "-//W3C//DTD SVG 1.1//EN" "http://www.w3.org/Graphics/SVG/1.1/DTD/svg11.dtd">
<svg fill="currentColor" xmlns="http://www.w3.org/2000/svg" xmlns:xlink="http://www.w3.org/1999/xlink" version="1.1" width="1080" height="1080" viewBox="0 0 1080 1080" xml:space="preserve">
<desc>Created with Fabric.js 5.2.4</desc>
<defs>
</defs>
<g transform="matrix(1 0 0 1 540 540)" id="2758df80-d980-4c07-aea4-9639b8c6ef84"  >
<rect style="stroke: none; stroke-width: 1; stroke-dasharray: none; stroke-linecap: butt; stroke-dashoffset: 0; stroke-linejoin: miter; stroke-miterlimit: 4; fill: rgb(255,255,255); fill-rule: nonzero; opacity: 1; visibility: hidden;" vector-effect="non-scaling-stroke"  x="-540" y="-540" rx="0" ry="0" width="1080" height="1080" />
</g>
<g transform="matrix(1 0 0 1 540 540)" id="9d82e4a2-0dbb-485f-a545-67a3910bf0d3"  >
</g>
<g transform="matrix(28.79 0 0 28.79 540 540)"  >
<path fill="currentColor" style="stroke: none; stroke-width: 1; stroke-dasharray: none; stroke-linecap: butt; stroke-dashoffset: 0; stroke-linejoin: miter; stroke-miterlimit: 4;"  transform=" translate(-27.52, -27.49)" d="M 27.5 25.73 C 25.9 22.63 21.56 16.84 17.52 13.99 C 13.649999999999999 11.26 12.17 11.73 11.21 12.17 C 10.09 12.68 9.89 14.4 9.89 15.41 C 9.89 16.42 10.440000000000001 23.71 10.81 24.92 C 12.01 28.94 16.26 30.3 20.18 29.860000000000003 C 20.38 29.830000000000002 20.58 29.800000000000004 20.79 29.780000000000005 C 20.59 29.810000000000006 20.38 29.840000000000003 20.18 29.860000000000003 C 14.44 30.710000000000004 9.33 32.800000000000004 16.03 40.25 C 23.39 47.87 26.12 38.62 27.520000000000003 33.92 C 28.92 38.61 30.53 47.53 38.870000000000005 40.25 C 45.14 33.92 40.59 30.71 34.85000000000001 29.86 C 34.650000000000006 29.84 34.44000000000001 29.81 34.24000000000001 29.78 C 34.45000000000001 29.810000000000002 34.650000000000006 29.830000000000002 34.85000000000001 29.86 C 38.77000000000001 30.3 43.03000000000001 28.939999999999998 44.220000000000006 24.919999999999998 C 44.580000000000005 23.7 45.14000000000001 16.419999999999998 45.14000000000001 15.409999999999998 C 45.14000000000001 14.399999999999999 44.940000000000005 12.679999999999998 43.82000000000001 12.169999999999998 C 42.85000000000001 11.729999999999999 41.38000000000001 11.259999999999998 37.510000000000005 13.989999999999998 C 33.44 16.85 29.1 22.63 27.5 25.73 z" stroke-linecap="round" />
</g>
</svg>