<svg width="96" height="96" viewBox="0 0 96 96" fill="none" xmlns="http://www.w3.org/2000/svg">
<path d="M0 48C0 21.5391 21.5391 0 48 0C74.4768 0 96 21.5391 96 48C96 58.6508 92.5816 68.7003 86.1246 77.1355L62.0534 53.0643C62.6548 51.4184 62.9555 49.7092 62.9555 47.9842C62.9555 39.7389 56.2453 33.0287 48 33.0287C39.7547 33.0287 33.0445 39.7389 33.0445 47.9842C33.0445 49.7092 33.3452 51.4184 33.9466 53.0643L9.87537 77.1355C3.4184 68.7161 0 58.6508 0 48Z" fill="currentColor"/>
<path d="M39.2008 59.3155L48 45.5945L56.7992 59.3155L80.6489 83.1652C71.7389 91.4421 60.1702 96 48 96C35.8299 96 24.2611 91.4421 15.3512 83.1652L39.2008 59.3155Z" fill="currentColor"/>
</svg>
